<svg width="375" height="110" viewBox="0 0 375 110" fill="none" xmlns="http://www.w3.org/2000/svg">
<g clip-path="url(#clip0_24_23)">
<path d="M96.2046 0.363037H13.7954C6.3769 0.363037 0.363037 6.3769 0.363037 13.7954V96.2046C0.363037 103.623 6.3769 109.637 13.7954 109.637H96.2046C103.623 109.637 109.637 103.623 109.637 96.2046V13.7954C109.637 6.3769 103.623 0.363037 96.2046 0.363037Z" stroke="#FF8437" stroke-width="2"/>
<path fill-rule="evenodd" clip-rule="evenodd" d="M12.5248 74.4768L0.389893 99.4749C1.85826 105.515 7.30308 110 13.7954 110H96.2046C103.824 110 110 103.824 110 96.2046V13.7954C110 6.17641 103.824 0 96.2046 0H78.4994L71.9295 5.26404H84.2244C91.7432 5.26404 97.8383 11.3592 97.8383 18.8779V76.9637C97.8383 84.4824 91.7432 90.5776 84.2244 90.5776H26.1386C18.6199 90.5776 12.5248 84.4824 12.5248 76.9637V74.4768Z" fill="#FF8437"/>
<path fill-rule="evenodd" clip-rule="evenodd" d="M37.7558 57.7496L51.5864 57.7787H51.8496L60.4488 70.7648H71.7973L61.8527 56.1407C63.588 55.4777 65.0993 54.6489 66.3863 53.6546C67.6733 52.6406 68.7359 51.4902 69.5745 50.2032C70.4323 48.9162 71.0658 47.5124 71.4753 45.9916C71.8848 44.4509 72.0896 42.8325 72.0896 41.1364C72.0896 38.6209 71.6703 36.3686 70.832 34.3798C70.013 32.3909 68.7555 30.7042 67.059 29.3198C65.3625 27.9353 63.2275 26.8824 60.6536 26.1609C58.0797 25.42 55.0378 25.0495 51.5279 25.0495H37.7558V33.1221H51.7621C55.2912 33.1221 57.9334 33.8241 59.6883 35.228C61.4432 36.6126 62.3206 38.5817 62.3206 41.1364C62.3206 42.4426 62.0963 43.6322 61.6479 44.7046C61.2188 45.7575 60.5559 46.6545 59.6589 47.3955C58.7818 48.1364 57.68 48.7115 56.3538 49.121C55.0476 49.5305 53.517 49.7352 51.7621 49.7352H37.7558V57.7496Z" fill="#FF8437"/>
<rect x="13" y="6" width="84" height="84" rx="13" stroke="#FF8437" stroke-width="2"/>
</g>
<path d="M137.92 82H128.88V26.16H152.96C157.973 26.16 161.92 27.68 164.8 30.72C167.68 33.7067 169.12 37.7867 169.12 42.96C169.12 46.96 168.187 50.2933 166.32 52.96C164.507 55.5733 161.813 57.4133 158.24 58.48L170.32 82H160.24L149.04 59.44H137.92V82ZM152.32 51.84C154.613 51.84 156.4 51.2533 157.68 50.08C158.96 48.8533 159.6 47.12 159.6 44.88V41.04C159.6 38.8 158.96 37.0933 157.68 35.92C156.4 34.6933 154.613 34.08 152.32 34.08H137.92V51.84H152.32ZM195.81 82.96C192.93 82.96 190.29 82.4533 187.89 81.44C185.543 80.4267 183.543 78.9867 181.89 77.12C180.237 75.2 178.957 72.9067 178.05 70.24C177.143 67.52 176.69 64.5067 176.69 61.2C176.69 57.8933 177.143 54.9067 178.05 52.24C178.957 49.52 180.237 47.2267 181.89 45.36C183.543 43.44 185.543 41.9733 187.89 40.96C190.29 39.9467 192.93 39.44 195.81 39.44C198.69 39.44 201.303 39.9467 203.65 40.96C206.05 41.9733 208.077 43.44 209.73 45.36C211.383 47.2267 212.663 49.52 213.57 52.24C214.477 54.9067 214.93 57.8933 214.93 61.2C214.93 64.5067 214.477 67.52 213.57 70.24C212.663 72.9067 211.383 75.2 209.73 77.12C208.077 78.9867 206.05 80.4267 203.65 81.44C201.303 82.4533 198.69 82.96 195.81 82.96ZM195.81 75.76C198.797 75.76 201.197 74.8533 203.01 73.04C204.823 71.1733 205.73 68.4 205.73 64.72V57.68C205.73 54 204.823 51.2533 203.01 49.44C201.197 47.5733 198.797 46.64 195.81 46.64C192.823 46.64 190.423 47.5733 188.61 49.44C186.797 51.2533 185.89 54 185.89 57.68V64.72C185.89 68.4 186.797 71.1733 188.61 73.04C190.423 74.8533 192.823 75.76 195.81 75.76ZM219.939 40.4H228.419L232.659 57.84L236.419 73.6H236.659L240.979 57.84L246.019 40.4H253.859L258.979 57.84L263.379 73.6H263.619L267.299 57.84L271.619 40.4H279.699L268.499 82H258.659L253.219 63.04L249.859 51.36H249.699L246.419 63.04L240.899 82H231.299L219.939 40.4ZM290.166 47.52H283.846V40.4H290.166V33.52C290.166 30.16 291.046 27.5467 292.806 25.68C294.566 23.76 297.206 22.8 300.726 22.8H307.606V29.92H298.886V40.4H323.606V82H314.886V47.52H298.886V82H290.166V47.52ZM319.286 32.96C317.472 32.96 316.139 32.5333 315.286 31.68C314.486 30.8267 314.086 29.7333 314.086 28.4V27.04C314.086 25.7067 314.486 24.6133 315.286 23.76C316.139 22.9067 317.472 22.48 319.286 22.48C321.099 22.48 322.406 22.9067 323.206 23.76C324.006 24.6133 324.406 25.7067 324.406 27.04V28.4C324.406 29.7333 324.006 30.8267 323.206 31.68C322.406 32.5333 321.099 32.96 319.286 32.96ZM344.933 82C341.946 82 339.706 81.2533 338.213 79.76C336.773 78.2133 336.053 76.08 336.053 73.36V22.8H344.773V74.88H350.533V82H344.933ZM367.276 82C364.29 82 362.05 81.2533 360.556 79.76C359.116 78.2133 358.396 76.08 358.396 73.36V22.8H367.116V74.88H372.876V82H367.276Z" fill="#151515"/>
<defs>
<clipPath id="clip0_24_23">
<rect width="110" height="110" fill="white"/>
</clipPath>
</defs>
</svg>
