<svg width="360" height="110" viewBox="0 0 360 110" fill="none" xmlns="http://www.w3.org/2000/svg">
<g clip-path="url(#clip0_9_45)">
<path d="M96.2046 0.363037H13.7954C6.3769 0.363037 0.363037 6.3769 0.363037 13.7954V96.2046C0.363037 103.623 6.3769 109.637 13.7954 109.637H96.2046C103.623 109.637 109.637 103.623 109.637 96.2046V13.7954C109.637 6.3769 103.623 0.363037 96.2046 0.363037Z" fill="#FFFCF8" stroke="#FF8437" stroke-width="2"/>
<path fill-rule="evenodd" clip-rule="evenodd" d="M0.389862 99.4749L29.6964 39.103L78.4993 0H96.2046C103.824 0 110 6.17641 110 13.7954V96.2046C110 103.824 103.824 110 96.2046 110H13.7954C7.30305 110 1.85823 105.515 0.389862 99.4749Z" fill="#FF8437"/>
<path d="M84.2244 5.26404H26.1386C18.6199 5.26404 12.5247 11.3592 12.5247 18.8779V76.9637C12.5247 84.4824 18.6199 90.5776 26.1386 90.5776H84.2244C91.7431 90.5776 97.8383 84.4824 97.8383 76.9637V18.8779C97.8383 11.3592 91.7431 5.26404 84.2244 5.26404Z" fill="#FFFCF8" stroke="#FF8437" stroke-width="5"/>
<path fill-rule="evenodd" clip-rule="evenodd" d="M37.7558 57.7496L51.5864 57.7787H51.8496L60.4488 70.7648H71.7973L61.8527 56.1407C63.588 55.4777 65.0993 54.6489 66.3863 53.6546C67.6732 52.6406 68.7358 51.4902 69.5744 50.2032C70.4323 48.9162 71.0658 47.5124 71.4753 45.9916C71.8848 44.4509 72.0896 42.8325 72.0896 41.1364C72.0896 38.6209 71.6703 36.3686 70.832 34.3798C70.013 32.3909 68.7554 30.7042 67.059 29.3198C65.3625 27.9353 63.2275 26.8824 60.6536 26.1609C58.0796 25.42 55.0377 25.0495 51.5279 25.0495H37.7558V33.1221H51.7621C55.2911 33.1221 57.9333 33.8241 59.6882 35.228C61.4432 36.6126 62.3206 38.5817 62.3206 41.1364C62.3206 42.4426 62.0963 43.6322 61.6479 44.7046C61.2188 45.7575 60.5559 46.6545 59.6588 47.3955C58.7817 48.1364 57.6799 48.7115 56.3538 49.121C55.0476 49.5305 53.517 49.7352 51.7621 49.7352H37.7558V57.7496Z" fill="#FF8437"/>
</g>
<path d="M137.44 56.72V78H130.48V23.6H147.52C152.64 23.6 156.587 24.96 159.36 27.68C162.187 30.3467 163.6 33.92 163.6 38.4V41.84C163.6 45.04 162.853 47.8133 161.36 50.16C159.92 52.5067 157.84 54.24 155.12 55.36C157.413 59.04 159.547 62.7733 161.52 66.56C163.493 70.3467 165.307 74.16 166.96 78H158.96C155.92 70.7467 152.373 63.6533 148.32 56.72H137.44ZM147.52 30H137.44V50.32H147.52C150.24 50.32 152.4 49.5733 154 48.08C155.6 46.5333 156.4 44.4533 156.4 41.84V38.4C156.4 35.7333 155.6 33.68 154 32.24C152.4 30.7467 150.24 30 147.52 30ZM208.447 55.76V60.56C208.447 66.2133 206.98 70.6667 204.047 73.92C201.167 77.1733 197.034 78.8 191.647 78.8C186.314 78.8 182.18 77.1733 179.247 73.92C176.314 70.6667 174.847 66.2133 174.847 60.56V55.76C174.847 50.2133 176.287 45.8133 179.167 42.56C182.1 39.2533 186.26 37.6 191.647 37.6C197.034 37.6 201.167 39.2533 204.047 42.56C206.98 45.8133 208.447 50.2133 208.447 55.76ZM201.647 55.76C201.647 51.9733 200.794 49.0133 199.087 46.88C197.38 44.6933 194.9 43.6 191.647 43.6C188.447 43.6 185.967 44.6933 184.207 46.88C182.5 49.0133 181.647 51.9733 181.647 55.76V60.56C181.647 64.5067 182.5 67.5467 184.207 69.68C185.967 71.8133 188.447 72.88 191.647 72.88C194.9 72.88 197.38 71.8133 199.087 69.68C200.794 67.5467 201.647 64.5067 201.647 60.56V55.76ZM267.816 38.4L257.656 78H250.056L241.736 45.52L233.176 78H225.576L215.496 38.4H222.216L226.216 54.96L229.816 71.36L238.376 38.4H245.336L253.896 71.52L257.416 55.04L261.336 38.4H267.816ZM285.161 32.56V38.4H309.721V78H303.161V44.16H285.161V78H278.601V44.16H271.721V38.4H278.601V32.64C278.601 30.0267 279.081 27.6267 280.041 25.44C281.055 23.2 282.708 21.4133 285.001 20.08C287.295 18.6933 290.388 18 294.281 18C296.361 18 298.601 18.24 301.001 18.72C303.455 19.2 305.988 20.0267 308.601 21.2L306.281 26.4C303.988 25.4933 301.828 24.88 299.801 24.56C297.828 24.1867 296.041 24 294.441 24C291.508 24 289.215 24.6933 287.561 26.08C285.961 27.4133 285.161 29.5733 285.161 32.56ZM323.804 68.4V18.8H330.364V68.08C330.364 69.52 330.577 70.6133 331.004 71.36C331.484 72.0533 332.417 72.4 333.804 72.4H335.084V78.4H333.244C329.724 78.4 327.27 77.4667 325.884 75.6C324.497 73.7333 323.804 71.3333 323.804 68.4ZM344.898 68.4V18.8H351.458V68.08C351.458 69.52 351.671 70.6133 352.098 71.36C352.578 72.0533 353.511 72.4 354.898 72.4H356.178V78.4H354.338C350.818 78.4 348.364 77.4667 346.978 75.6C345.591 73.7333 344.898 71.3333 344.898 68.4Z" fill="black"/>
<defs>
<clipPath id="clip0_9_45">
<rect width="110" height="110" fill="white"/>
</clipPath>
</defs>
</svg>
