<svg width="303" height="303" viewBox="0 0 303 303" fill="none" xmlns="http://www.w3.org/2000/svg">
<rect x="1" y="1" width="301" height="301" rx="37" fill="#FFFCF8" stroke="#FF8437" stroke-width="2"/>
<path fill-rule="evenodd" clip-rule="evenodd" d="M1.07391 274.008L81.8 107.711L216.23 0H265C285.987 0 303 17.0132 303 38V265C303 285.987 285.987 303 265 303H38C20.1166 303 5.11859 290.646 1.07391 274.008Z" fill="#FF8437"/>
<rect x="34.5" y="14.5" width="235" height="235" rx="37.5" fill="#FFFCF8" stroke="#FF8437" stroke-width="5"/>
<path fill-rule="evenodd" clip-rule="evenodd" d="M104 159.074L142.097 159.154H142.822L166.509 194.925H197.769L170.376 154.642C175.156 152.816 179.319 150.533 182.864 147.794C186.409 145.001 189.336 141.832 191.646 138.287C194.009 134.742 195.754 130.875 196.882 126.686C198.01 122.442 198.574 117.984 198.574 113.312C198.574 106.383 197.419 100.179 195.11 94.7007C192.854 89.2222 189.39 84.5762 184.717 80.7627C180.044 76.9492 174.163 74.0488 167.073 72.0615C159.983 70.0205 151.604 69 141.936 69H104V91.2363H142.581C152.302 91.2363 159.58 93.1699 164.414 97.0371C169.248 100.851 171.665 106.275 171.665 113.312C171.665 116.91 171.047 120.187 169.812 123.141C168.63 126.041 166.804 128.512 164.333 130.553C161.917 132.594 158.882 134.178 155.229 135.306C151.631 136.434 147.415 136.998 142.581 136.998H104V159.074Z" fill="#FF8437"/>
</svg>
